<?xml version="1.0" standalone="no"?><!DOCTYPE svg PUBLIC "-//W3C//DTD SVG 1.1//EN" "http://www.w3.org/Graphics/SVG/1.1/DTD/svg11.dtd"><svg class="icon" width="200px" height="200.00px" viewBox="0 0 1024 1024" version="1.1" xmlns="http://www.w3.org/2000/svg"><path fill="#bfbfbf" d="M197.818182 209.454545h256v46.545455h-256zM197.818182 395.636364h256v46.545454h-256zM197.818182 581.818182h605.090909v46.545454h-605.090909zM197.818182 768h605.090909v46.545455h-605.090909z"  /><path fill="#bfbfbf" d="M907.636364 977.454545H116.363636V69.818182h572.509091v46.545454H162.909091v814.545455h698.181818V349.090909h46.545455z"  /><path fill="#bfbfbf" d="M665.6 488.727273H535.272727v-130.327273L837.818182 53.527273 970.472727 186.181818 665.6 488.727273zM581.818182 442.181818h65.163636L905.309091 186.181818 837.818182 118.690909 581.818182 377.018182V442.181818z"  /><path fill="#bfbfbf" d="M837.818182 318.836364L707.490909 186.181818 837.818182 55.854545 970.472727 186.181818 837.818182 318.836364zM772.654545 186.181818l65.163637 65.163637L902.981818 186.181818 837.818182 121.018182 772.654545 186.181818z"  /></svg>