<?xml version="1.0" standalone="no"?><!DOCTYPE svg PUBLIC "-//W3C//DTD SVG 1.1//EN" "http://www.w3.org/Graphics/SVG/1.1/DTD/svg11.dtd"><svg class="icon" width="200px" height="200.00px" viewBox="0 0 1024 1024" version="1.1" xmlns="http://www.w3.org/2000/svg"><path fill="#bfbfbf" d="M512 69.1c-247.4 0-448 200.6-448 448s200.6 448 448 448 448-200.6 448-448-200.6-448-448-448z m0 848c-220.9 0-400-179.1-400-400s179.1-400 400-400 400 179.1 400 400-179.1 400-400 400zM785.3 492.8h-250v-250c0-13.2-10.8-24-24-24s-24 10.8-24 24v274c0 13.2 10.8 24 24 24h274c13.2 0 24-10.8 24-24s-10.8-24-24-24z" /></svg>