<?xml version="1.0" standalone="no"?><!DOCTYPE svg PUBLIC "-//W3C//DTD SVG 1.1//EN" "http://www.w3.org/Graphics/SVG/1.1/DTD/svg11.dtd"><svg class="icon" width="200px" height="200.00px" viewBox="0 0 1024 1024" version="1.1" xmlns="http://www.w3.org/2000/svg"><path fill="#bfbfbf" d="M455.51616 688.41472l-189.50144-198.84032 44.48256-42.3936 147.12832 154.39872L713.3184 357.92896l42.3936 44.48256z"  /><path fill="#bfbfbf" d="M509.19424 1013.57568l-6.71744-1.49504c-136.2944-30.49472-260.28032-107.04896-349.12256-215.51104-43.25376-52.81792-67.072-122.28608-67.072-195.584V145.98144l24.90368-4.79232A1584.3328 1584.3328 0 0 0 491.80672 16.1792l19.70176-9.3184 13.27104 6.51264a1501.30688 1501.30688 0 0 0 383.34464 127.2832l28.3648 4.15744v450.9696c0 71.53664-22.95808 139.91936-64.65536 192.55296a632.48384 632.48384 0 0 1-355.92192 223.72352l-6.71744 1.51552zM147.72224 196.5056v404.48c0 59.14624 18.88256 114.76992 53.18656 156.65152a570.2656 570.2656 0 0 0 308.28544 192.94208 570.96192 570.96192 0 0 0 314.49088-200.37632c33.13664-41.82016 51.38432-96.6656 51.38432-154.39872V196.77184a1563.70944 1563.70944 0 0 1-363.95008-121.7536A1646.1824 1646.1824 0 0 1 147.72224 196.5056z"  /></svg>