<?xml version="1.0" standalone="no"?><!DOCTYPE svg PUBLIC "-//W3C//DTD SVG 1.1//EN" "http://www.w3.org/Graphics/SVG/1.1/DTD/svg11.dtd"><svg class="icon" width="200px" height="187.03px" viewBox="0 0 1095 1024" version="1.1" xmlns="http://www.w3.org/2000/svg"><path fill="#bfbfbf" d="M368.900679 2.681761l9.77545 13.437639A208.687111 208.687111 0 0 0 547.88657 102.382698c66.957506 0 128.594745-31.662077 167.725381-84.230351l11.303765-15.456168L742.386303 8.650841a540.100814 540.100814 0 0 1 145.262031 84.028498l12.904171 10.424263-6.733238 15.167807a208.701529 208.701529 0 0 0 9.948467 189.568753 208.715947 208.715947 0 0 0 159.233139 103.406381l16.523105 1.744587 2.566417 16.422179c4.311002 27.538509 6.48813 55.567233 6.48813 83.884317 0 28.288249-2.16271 56.302554-6.473712 83.884318l-2.551998 16.436597-16.537524 1.730168a208.687111 208.687111 0 0 0-159.247557 103.406381 208.715947 208.715947 0 0 0-9.948467 189.568753l6.733238 15.167807-12.904171 10.424263a540.12965 540.12965 0 0 1-145.262031 84.014081l-15.499423 5.983498-9.77545-13.437639A208.687111 208.687111 0 0 0 547.88657 924.198136c-67.764918 0-130.094224 32.440652-169.210441 86.24888l-9.77545 13.452058-15.499423-5.983499a539.913379 539.913379 0 0 1-145.262032-84.01408l-12.90417-10.438681 6.733238-15.153389a208.687111 208.687111 0 0 0-9.948467-189.568753 208.715947 208.715947 0 0 0-159.233139-103.406381l-16.523106-1.744586-2.566416-16.422179a542.321196 542.321196 0 0 1-6.48813-83.884318c0-28.288249 2.16271-56.302554 6.473712-83.884318l2.551998-16.436597 16.537524-1.730168a208.687111 208.687111 0 0 0 159.247557-103.406381 208.715947 208.715947 0 0 0 9.948467-189.554335l-6.71882-15.167807 12.889752-10.424263A539.668272 539.668272 0 0 1 353.401256 8.650841l15.499423-5.96908z m372.663794 52.323167l-1.441807 1.759004A251.811551 251.811551 0 0 1 547.88657 145.622483a251.782715 251.782715 0 0 1-190.650108-87.027456l-3.05663-3.604517-3.171975 1.355298a496.414069 496.414069 0 0 0-100.349751 58.061559l-2.768269 2.09062 2.220382 6.271859a251.768297 251.768297 0 0 1-17.705387 201.478077l-2.926867 5.190505a251.782715 251.782715 0 0 1-170.623413 121.587564l-4.613782 0.836248-0.720903 6.055588a502.037115 502.037115 0 0 0-2.941286 44.220214L50.463237 513.283208c0 18.628143 1.009265 37.097688 3.05663 55.36538l0.720903 6.026752 4.6282 0.865084c69.206725 13.365549 130.339331 55.077018 167.783053 116.786348l2.825942 4.786798a251.811551 251.811551 0 0 1 18.584889 212.493481l-0.187435 0.44696 2.768269 2.119456a496.673594 496.673594 0 0 0 100.349751 58.047141l3.186393 1.326462 3.05663-3.575681a251.782715 251.782715 0 0 1 185.084734-86.969784l5.565374-0.057672c74.339557 0 143.286756 32.397398 190.650109 87.027456l3.042212 3.590099 3.186393-1.34088a496.875447 496.875447 0 0 0 100.349751-58.047141l2.753851-2.105037-2.191547-6.27186a251.768297 251.768297 0 0 1 17.690969-201.478077l2.926868-5.204923a251.782715 251.782715 0 0 1 170.623413-121.573146l4.599363-0.850666 0.74974-6.04117a502.037115 502.037115 0 0 0 2.926867-44.220214l0.115345-11.145166c0-18.628143-1.009265-37.112106-3.05663-55.36538l-0.735322-6.055588-4.613781-0.836248a251.782715 251.782715 0 0 1-167.783054-116.786348l-2.825941-4.786798a251.811551 251.811551 0 0 1-18.584889-212.493481l0.173017-0.461378-2.753851-2.105038a496.861029 496.861029 0 0 0-100.349751-58.061559l-3.215229-1.34088zM547.88657 304.235645c115.459886 0 209.061981 93.602095 209.061981 209.061981S663.346456 722.345189 547.88657 722.345189s-209.061981-93.602095-209.06198-209.061981S432.426685 304.221227 547.88657 304.221227z m0 43.254203c-91.569148 0-165.807778 74.23863-165.807778 165.807778S456.317423 679.090986 547.88657 679.090986s165.807778-74.23863 165.807778-165.807778S639.455718 347.47543 547.88657 347.47543z" /></svg>